<svg xmlns="http://www.w3.org/2000/svg" viewBox="0 0 293.01 64.46"><defs><style>.cls-1{fill:#fff;}</style></defs><title>grotto-logoldpi</title><g id="Layer_2" data-name="Layer 2"><g id="Layer_1-2" data-name="Layer 1"><path class="cls-1" d="M96.15,21.79h8.69v14.4a27.75,27.75,0,0,1-15.21,4.87c-11.35,0-20-8.25-20-19.12s8.78-19,20.46-19a23.62,23.62,0,0,1,15,5.46l-4.77,6.05a15.69,15.69,0,0,0-10.28-4.18A11.56,11.56,0,0,0,78.33,21.95,11.61,11.61,0,0,0,90.16,33.67a17.07,17.07,0,0,0,7.34-2V26L96.15,26Z"/><path class="cls-1" d="M135.25,40.69,129.31,30h-8.62V40.69h-8.46V3.21H128.5c9.8,0,15.37,4.71,15.37,13,0,5.78-2.46,10-7,12.1l8,12.37ZM120.69,22.91h7.82c4.66,0,7.34-2.14,7.34-6.43s-2.68-6.27-7.34-6.27h-7.82Z"/><path class="cls-1" d="M188.59,21.95c0,10.82-8.68,19.12-20.13,19.12s-20.13-8.25-20.13-19.12,8.67-19,20.13-19S188.59,11.08,188.59,21.95Zm-31.59,0a11.66,11.66,0,0,0,11.57,11.73,11.48,11.48,0,0,0,11.35-11.73,11.39,11.39,0,0,0-11.35-11.62A11.53,11.53,0,0,0,157,21.95Z"/><path class="cls-1" d="M220.71,3.21v7.18H209.25V40.69h-8.46V10.38H189.39V3.21Z"/><path class="cls-1" d="M252.9,3.21v7.18H241.44V40.69H233V10.38H221.57V3.21Z"/><path class="cls-1" d="M293,21.95c0,10.82-8.68,19.12-20.13,19.12s-20.13-8.25-20.13-19.12,8.67-19,20.13-19S293,11.08,293,21.95Zm-31.59,0A11.66,11.66,0,0,0,273,33.67a11.48,11.48,0,0,0,11.35-11.73A11.39,11.39,0,0,0,273,10.33,11.53,11.53,0,0,0,261.41,21.95Z"/><path class="cls-1" d="M43.64,20.52l-22.46-.37a2,2,0,0,0-2,1.94L19,35.7a2,2,0,0,0,1.94,2l8,.13,0,2.83-3.47-.06a1,1,0,0,0-1,.95h0a1,1,0,0,0,.95,1l13.48.22a1,1,0,0,0,1-.95h0a1,1,0,0,0-.95-1l-3.47-.06,0-2.83,8,.13a2,2,0,0,0,2-1.94l.23-13.61a2,2,0,0,0-1.94-2Zm-.3,15.54L21,35.73l.19-13.57,22.42.33Zm0,0"/><path class="cls-1" d="M59.53,34.56a5.57,5.57,0,0,0,1.83-1.07l-3.51-.26A8.64,8.64,0,0,0,59.53,34.56Zm-2,1.63,3.39.63a5.87,5.87,0,0,0-1.5-1.47A8.73,8.73,0,0,0,57.52,36.2Zm-2,9.88a8.2,8.2,0,0,0-2.1,0l2.92,2A5.81,5.81,0,0,0,55.53,46.07Zm2.5-.92L55,43.56a10,10,0,0,0,1,1.83A5.35,5.35,0,0,0,58,45.15Zm1.3-1.55-4-1.77a1.67,1.67,0,0,0-.29.41,1.45,1.45,0,0,0-.15.55l3.9,1.91a2,2,0,0,0,.39-.54A1.79,1.79,0,0,0,59.34,43.61Zm-3.42-2.21,3.31,1.37A5.6,5.6,0,0,0,58,40.92,8,8,0,0,0,55.92,41.39Zm1.54-1.1c-.87-1-1.83-2-1.48-3.21s1.47-1.73,2.76-2.22c-1.06-.79-2.2-1.61-2.1-2.85a.38.38,0,0,1,.41-.3.34.34,0,0,1,.37.32,1.45,1.45,0,0,0,.06.53l4.36.21a2,2,0,0,0,.13-.61.41.41,0,0,1,.41-.36.36.36,0,0,1,.37.39c-.11,1.57-1.27,2.36-2.55,2.87,1,.8,2.07,1.89,1.73,3.42s-1.71,2.06-3.08,2.3c.85,1,1.66,2.27,1,3.7s-2.08,1.68-3.48,1.63A5.63,5.63,0,0,1,57.1,48a2.4,2.4,0,0,1-.48,2,.39.39,0,0,1-.54.07.38.38,0,0,1-.08-.53,2,2,0,0,0,.3-.54L52.73,46.4a1.5,1.5,0,0,0-.4.36.36.36,0,0,1-.51,0,.35.35,0,0,1-.12-.48,2.48,2.48,0,0,1,1.47-.87,8.21,8.21,0,0,1,1.94-.08c-.63-1.13-1.37-2.34-.8-3.44S56.1,40.51,57.46,40.3Zm-.77-2.54L61,38.84a2,2,0,0,0,.23-.54,1.39,1.39,0,0,0,0-.66L57,36.74a2.56,2.56,0,0,0-.23.52A1.45,1.45,0,0,0,56.69,37.76Zm1.62,2.41a5.39,5.39,0,0,0,2.05-.71l-3.45-1A8.35,8.35,0,0,0,58.31,40.16Z"/><path class="cls-1" d="M52.22,50.46a5.68,5.68,0,0,0,2.16.25l-2.69-2.27A8.56,8.56,0,0,0,52.22,50.46Zm-2.56.17L52,53.12A5.45,5.45,0,0,0,51.67,51,10,10,0,0,0,49.67,50.62Zm-7.41,6.84a9.92,9.92,0,0,0-1.73-1.23l1.21,3.3A5.13,5.13,0,0,0,42.25,57.46Zm2.56.71-1.54-3.08a8.52,8.52,0,0,0-.29,2A6,6,0,0,0,44.81,58.17Zm1.94-.53-2.22-3.79a1.47,1.47,0,0,0-.46.18,1.5,1.5,0,0,0-.43.38l2,3.83A1.94,1.94,0,0,0,46.3,58,2,2,0,0,0,46.75,57.64ZM45.3,53.87l1.88,3a4.94,4.94,0,0,0,.1-2.2A9.84,9.84,0,0,0,45.3,53.87Zm1.89,0c-.17-1.36-.22-2.61.69-3.47a2.24,2.24,0,0,1,1.65-.5,7.8,7.8,0,0,1,1.88.33c-.41-1.28-.75-2.53,0-3.54a.36.36,0,0,1,.5,0,.35.35,0,0,1,.12.49,1.48,1.48,0,0,0-.25.47l3.4,2.74a2,2,0,0,0,.45-.43.39.39,0,0,1,.54-.06.38.38,0,0,1,.08.54c-.94,1.27-2.44,1.14-3.75.82a5.85,5.85,0,0,1,.31,2A2.61,2.61,0,0,1,51.87,55c-1.16,1.07-2.64.61-3.83.05a5.44,5.44,0,0,1-.1,2,2.69,2.69,0,0,1-1.25,1.57,2.38,2.38,0,0,1-2,.23A5.64,5.64,0,0,1,42.91,58c-.12,1.39-.57,2.72-2.06,3.24a.37.37,0,0,1-.48-.25.4.4,0,0,1,.24-.5,2,2,0,0,0,.55-.29L39.77,56a1.46,1.46,0,0,0-.53.08.34.34,0,0,1-.41-.27.38.38,0,0,1,.18-.48c1.17-.42,2.27.46,3.31,1.23a8.18,8.18,0,0,1,.32-1.91,2.51,2.51,0,0,1,1-1.35,2.17,2.17,0,0,1,1.71-.17A8.77,8.77,0,0,1,47.19,53.88Zm.88-2.49,2.81,3.38a2,2,0,0,0,.91-.83l-2.91-3.23a1.48,1.48,0,0,0-.49.29A1.49,1.49,0,0,0,48.07,51.39Zm-.13,2.86a5.75,5.75,0,0,0,2.12.68l-2.22-2.81A7.71,7.71,0,0,0,47.94,54.25Z"/><path class="cls-1" d="M37,59.06a5.63,5.63,0,0,0,1.59,1.43l-.84-3.42A8.53,8.53,0,0,0,37,59.06Zm-2.17-1.41.44,3.42a5.8,5.8,0,0,0,.94-1.86A8.87,8.87,0,0,0,34.82,57.65Zm-10,1.19a8.51,8.51,0,0,0-.68-2l-1,3.38A5.64,5.64,0,0,0,24.81,58.84Zm1.66,2.07.56-3.4A8.89,8.89,0,0,0,25.6,59,5.78,5.78,0,0,0,26.47,60.91Zm1.87.74.43-4.37a2.12,2.12,0,0,0-1-.1l-.6,4.3a2,2,0,0,0,.63.22A2,2,0,0,0,28.34,61.65Zm1-3.93-.27,3.57a5.5,5.5,0,0,0,1.37-1.7A8.14,8.14,0,0,0,29.38,57.73Zm1.52,1.15c.67-1.19,1.35-2.37,2.6-2.4s2.1.87,3,1.94c.42-1.3.85-2.59,2.06-2.87a.34.34,0,0,1,.4.27.38.38,0,0,1-.18.48,1.53,1.53,0,0,0-.48.21l1.15,4.22a1.9,1.9,0,0,0,.62-.06.37.37,0,0,1,.47.25.4.4,0,0,1-.25.5c-1.53.38-2.65-.53-3.52-1.54-.44,1.24-1.16,2.51-2.73,2.7s-2.49-1.05-3.13-2.21c-.68,1.13-1.64,2.22-3.21,2.1s-2.23-1.53-2.63-2.8c-.9,1-2.05,1.85-3.57,1.41a.4.4,0,0,1-.23-.51.37.37,0,0,1,.48-.24,1.69,1.69,0,0,0,.62.08l1.29-4.17a1.77,1.77,0,0,0-.48-.24.38.38,0,0,1-.17-.48.34.34,0,0,1,.41-.26c1.2.34,1.59,1.62,2,2.95.89-1,1.8-2,3-1.83S30.28,57.66,30.9,58.88Zm2.18-1.52.28,4.39a2,2,0,0,0,.58.06,1.78,1.78,0,0,0,.64-.19l-.45-4.32a1.64,1.64,0,0,0-.57,0A1.45,1.45,0,0,0,33.08,57.35Zm-1.79,2.26a5.49,5.49,0,0,0,1.31,1.75l-.14-3.58A8.16,8.16,0,0,0,31.29,59.61Z"/><path class="cls-1" d="M19.61,57.06a5.11,5.11,0,0,0,.45,2.09l1.33-3.26A10,10,0,0,0,19.61,57.06Zm-.94-2.4-1.65,3a6,6,0,0,0,1.87-1A8.5,8.5,0,0,0,18.67,54.66ZM9.89,49.71a8.83,8.83,0,0,0,.6-2L7.73,49.88A5.57,5.57,0,0,0,9.89,49.71Zm.1,2.67L12.44,50a9.69,9.69,0,0,0-2,.35A5.55,5.55,0,0,0,10,52.38Zm1.1,1.68L14,50.79a1.49,1.49,0,0,0-.3-.4,1.48,1.48,0,0,0-.48-.31l-3,3.12a2,2,0,0,0,.88.86Zm3.13-2.54-2.32,2.73A5.76,5.76,0,0,0,14,53.66,7.68,7.68,0,0,0,14.21,51.53Zm.59,1.78a8.45,8.45,0,0,1,1.8-.64,2.17,2.17,0,0,1,1.71.23,2.53,2.53,0,0,1,1,1.39,8.15,8.15,0,0,1,.26,1.92c1.07-.74,2.19-1.57,3.35-1.11a.38.38,0,0,1,.16.48.34.34,0,0,1-.42.26,1.46,1.46,0,0,0-.52-.1l-1.55,4.09a2,2,0,0,0,.54.31.4.4,0,0,1,.22.5.37.37,0,0,1-.48.23c-1.47-.57-1.86-1.92-1.94-3.31a5.66,5.66,0,0,1-1.8.89,2.37,2.37,0,0,1-2-.3,2.69,2.69,0,0,1-1.2-1.61,5.56,5.56,0,0,1,0-2c-1.22.51-2.71.92-3.83-.19a2.58,2.58,0,0,1-.85-1.81,5.84,5.84,0,0,1,.38-2c-1.32.28-2.82.35-3.71-.95A.38.38,0,0,1,6,49a.39.39,0,0,1,.54.08,2,2,0,0,0,.44.44l3.5-2.62a1.48,1.48,0,0,0-.23-.48.35.35,0,0,1,.13-.48.36.36,0,0,1,.5,0c.7,1,.31,2.27-.14,3.53a7.82,7.82,0,0,1,1.9-.26,2.28,2.28,0,0,1,1.63.56C15.12,50.71,15,52,14.8,53.31Zm2.65.06L15.1,57.09a2,2,0,0,0,.44.38,1.94,1.94,0,0,0,.61.26L18.33,54a1.5,1.5,0,0,0-.42-.39A1.47,1.47,0,0,0,17.45,53.37Zm-2.78.78a5,5,0,0,0,0,2.2l2-3A9.84,9.84,0,0,0,14.68,54.15Z"/><path class="cls-1" d="M6.73,45.21a5.8,5.8,0,0,0-.88,2l3-1.86A8.22,8.22,0,0,0,6.73,45.21Zm.64-2.49L4.27,44.21a5.44,5.44,0,0,0,2.06.31A9.76,9.76,0,0,0,7.38,42.72ZM3.15,33.57A8.62,8.62,0,0,0,4.86,32.3l-3.51.13A5.58,5.58,0,0,0,3.15,33.57ZM1.69,35.78l3.41-.51a8.75,8.75,0,0,0-1.86-.9A5.85,5.85,0,0,0,1.69,35.78Zm-.12,2,4.29-.93a1.45,1.45,0,0,0,0-.49,2.49,2.49,0,0,0-.21-.53l-4.28.75a1.4,1.4,0,0,0,0,.67A2,2,0,0,0,1.57,37.8Zm4-.22-3.48.85a5.41,5.41,0,0,0,2,.78A8.33,8.33,0,0,0,5.62,37.58ZM5,39.37c1.36.26,2.61.57,3.09,1.72s-.25,2.31-.92,3.41a8.24,8.24,0,0,1,1.94.14,2.47,2.47,0,0,1,1.44.92.35.35,0,0,1-.14.47.37.37,0,0,1-.51,0,1.5,1.5,0,0,0-.39-.37L5.88,48a2,2,0,0,0,.28.55.38.38,0,0,1-.1.53A.39.39,0,0,1,5.51,49a2.41,2.41,0,0,1-.41-2,5.61,5.61,0,0,1,.77-1.84c-1.4,0-2.74-.32-3.42-1.75s.24-2.7,1.13-3.67c-1.35-.28-2.62-.87-3-2.4S1.37,34.81,2.44,34C1.2,33.49.06,32.66,0,31.09a.37.37,0,0,1,.39-.37.4.4,0,0,1,.4.38,2,2,0,0,0,.11.61l4.37-.06a1.45,1.45,0,0,0,.08-.53c0-.18.16-.31.38-.31a.38.38,0,0,1,.4.32c.06,1.25-1.1,2-2.2,2.78C5.2,34.43,6.39,35,6.6,36.22S5.92,38.42,5,39.37ZM7.11,41,3,42.61a1.58,1.58,0,0,0,.16.56,2,2,0,0,0,.37.55l4-1.77a1.45,1.45,0,0,0-.14-.55A2,2,0,0,0,7.11,41ZM4.43,40a5.58,5.58,0,0,0-1.27,1.8l3.36-1.25A8,8,0,0,0,4.43,40Z"/><path class="cls-1" d="M3.24,28.07A5.58,5.58,0,0,0,1.4,29.15l3.51.25A8.62,8.62,0,0,0,3.24,28.07Zm2-1.64-3.39-.62a5.86,5.86,0,0,0,1.5,1.46A8.76,8.76,0,0,0,5.25,26.44Zm2-9.88a8.22,8.22,0,0,0,2.1,0l-2.92-2A5.8,5.8,0,0,0,7.21,16.56Zm-2.5.93,3.06,1.59a9.75,9.75,0,0,0-1-1.83A5.44,5.44,0,0,0,4.71,17.48ZM3.42,19l4,1.77a2,2,0,0,0,.29-.41,1.45,1.45,0,0,0,.15-.55L4,17.94a2,2,0,0,0-.39.54A1.58,1.58,0,0,0,3.42,19Zm3.42,2.21L3.52,19.88a5.58,5.58,0,0,0,1.21,1.84A8,8,0,0,0,6.84,21.24Zm-1.55,1.1c.88,1,1.84,2,1.49,3.21S5.32,27.28,4,27.77c1.07.79,2.21,1.6,2.1,2.85a.38.38,0,0,1-.41.3c-.22,0-.39-.15-.37-.32a1.45,1.45,0,0,0-.06-.53l-4.36-.2a2,2,0,0,0-.13.61.41.41,0,0,1-.41.37A.37.37,0,0,1,0,30.45c.11-1.57,1.28-2.36,2.54-2.87-1-.8-2.06-1.88-1.74-3.42s1.72-2.07,3.07-2.3c-.86-1-1.66-2.27-1-3.7S5,16.46,6.35,16.52a5.61,5.61,0,0,1-.71-1.87,2.41,2.41,0,0,1,.47-2,.39.39,0,0,1,.55-.07.38.38,0,0,1,.08.53,2,2,0,0,0-.3.54L10,16.22a1.5,1.5,0,0,0,.4-.36.36.36,0,0,1,.51,0,.35.35,0,0,1,.12.48,2.47,2.47,0,0,1-1.47.87,8.24,8.24,0,0,1-1.94.08c.63,1.13,1.38,2.34.8,3.44S6.66,22.12,5.29,22.34Zm.77,2.54L1.81,23.8a2,2,0,0,0-.23.54,1.4,1.4,0,0,0,0,.66l4.25.89A2.49,2.49,0,0,0,6,25.37,1.45,1.45,0,0,0,6.07,24.87Zm-1.62-2.4a5.41,5.41,0,0,0-2.06.72l3.45,1A8.33,8.33,0,0,0,4.45,22.47Z"/><path class="cls-1" d="M10.51,12.17a5.57,5.57,0,0,0-2.16-.24L11,14.19A8.83,8.83,0,0,0,10.51,12.17ZM13.07,12,10.7,9.5a5.55,5.55,0,0,0,.37,2.08A9.7,9.7,0,0,0,13.07,12Zm7.4-6.85A10,10,0,0,0,22.2,6.37L21,3.07A5.11,5.11,0,0,0,20.47,5.15Zm-2.57-.71,1.55,3.08a8.49,8.49,0,0,0,.29-2A6,6,0,0,0,17.91,4.43ZM16,5l2.22,3.79a1.47,1.47,0,0,0,.46-.18,1.5,1.5,0,0,0,.43-.38L17,4.37a2,2,0,0,0-.62.24A2,2,0,0,0,16,5Zm1.46,3.77-1.89-3a5,5,0,0,0-.1,2.2A9.84,9.84,0,0,0,17.43,8.73Zm-1.88,0c.17,1.36.23,2.61-.68,3.47a2.28,2.28,0,0,1-1.65.51,7.82,7.82,0,0,1-1.89-.33c.41,1.28.76,2.53,0,3.54a.36.36,0,0,1-.5,0,.35.35,0,0,1-.12-.49A1.48,1.48,0,0,0,11,15L7.58,12.24a2,2,0,0,0-.45.43.39.39,0,0,1-.54.06.38.38,0,0,1-.08-.54c.94-1.27,2.43-1.15,3.74-.83a5.84,5.84,0,0,1-.31-2,2.58,2.58,0,0,1,.91-1.78C12,6.5,13.49,7,14.69,7.51a5.56,5.56,0,0,1,.1-2A2.69,2.69,0,0,1,16,3.92a2.37,2.37,0,0,1,2-.24,5.66,5.66,0,0,1,1.77.94c.12-1.39.56-2.73,2-3.24a.37.37,0,0,1,.48.25.4.4,0,0,1-.24.5,2,2,0,0,0-.55.29L23,6.56a1.46,1.46,0,0,0,.53-.08.34.34,0,0,1,.41.27.38.38,0,0,1-.18.48c-1.17.41-2.27-.45-3.31-1.22a8.15,8.15,0,0,1-.32,1.91,2.53,2.53,0,0,1-1,1.35,2.17,2.17,0,0,1-1.71.17A8.46,8.46,0,0,1,15.54,8.73Zm-.88,2.49L11.85,7.85a2,2,0,0,0-.91.83l2.91,3.22a1.51,1.51,0,0,0,.81-.68Zm.12-2.87a5.76,5.76,0,0,0-2.12-.68l2.23,2.81A7.68,7.68,0,0,0,14.79,8.36Z"/><path class="cls-1" d="M25.73,3.53a5.64,5.64,0,0,0-1.59-1.43L25,5.52A8.51,8.51,0,0,0,25.73,3.53Zm2.17,1.4-.45-3.41a5.78,5.78,0,0,0-.93,1.86A8.9,8.9,0,0,0,27.9,4.93Zm10-1.21a8.53,8.53,0,0,0,.68,2l1-3.39A5.63,5.63,0,0,0,37.91,3.72ZM36.25,1.66l-.55,3.4a8.86,8.86,0,0,0,1.43-1.5A5.8,5.8,0,0,0,36.25,1.66ZM34.37.92,33.95,5.3a1.45,1.45,0,0,0,.48.11,1.63,1.63,0,0,0,.57,0l.59-4.3A1.79,1.79,0,0,0,35,.88,2,2,0,0,0,34.37.92Zm-1,3.93.26-3.57A5.49,5.49,0,0,0,32.23,3,8.16,8.16,0,0,0,33.34,4.85ZM31.82,3.7c-.67,1.2-1.35,2.37-2.6,2.4s-2.1-.87-3-1.93c-.41,1.31-.85,2.58-2.06,2.88a.34.34,0,0,1-.41-.27A.38.38,0,0,1,24,6.3a1.77,1.77,0,0,0,.48-.22L23.31,1.87a1.69,1.69,0,0,0-.62.06.37.37,0,0,1-.47-.25.4.4,0,0,1,.25-.5C24,.79,25.12,1.71,26,2.71,26.42,1.46,27.14.21,28.7,0s2.49,1.06,3.14,2.21C32.52,1.07,33.47,0,35,.1s2.23,1.53,2.64,2.79c.9-1,2-1.85,3.57-1.42a.4.4,0,0,1,.23.51.37.37,0,0,1-.48.24,1.9,1.9,0,0,0-.62-.08L39.09,6.31a1.53,1.53,0,0,0,.48.23.38.38,0,0,1,.17.48.34.34,0,0,1-.41.26c-1.2-.33-1.59-1.62-2-2.94-.89,1-1.79,2-3,1.84S32.45,4.91,31.82,3.7ZM29.64,5.23,29.35.84a2,2,0,0,0-.58-.06,2,2,0,0,0-.64.19l.46,4.32a2.12,2.12,0,0,0,1.05-.07ZM31.43,3a5.51,5.51,0,0,0-1.32-1.75l.15,3.58A8.14,8.14,0,0,0,31.43,3Z"/><path class="cls-1" d="M43.11,5.5a5.13,5.13,0,0,0-.45-2.09L41.34,6.67A9.92,9.92,0,0,0,43.11,5.5Zm.94,2.4,1.64-3a6,6,0,0,0-1.86,1A8.53,8.53,0,0,0,44.06,7.9Zm8.79,4.93a8.56,8.56,0,0,0-.6,2L55,12.65A5.68,5.68,0,0,0,52.85,12.83Zm-.1-2.67L50.3,12.58a10,10,0,0,0,2-.36A5.45,5.45,0,0,0,52.75,10.15Zm-1.1-1.69-2.92,3.29a1.49,1.49,0,0,0,.3.4,1.47,1.47,0,0,0,.48.31l3-3.13a2,2,0,0,0-.88-.86ZM48.52,11l2.32-2.74a5.75,5.75,0,0,0-2.14.61A7.7,7.7,0,0,0,48.52,11Zm-.59-1.78a8.77,8.77,0,0,1-1.81.65,2.17,2.17,0,0,1-1.7-.22,2.51,2.51,0,0,1-1-1.38,8.18,8.18,0,0,1-.26-1.92c-1.07.74-2.19,1.58-3.35,1.12A.38.38,0,0,1,39.64,7a.34.34,0,0,1,.42-.26,1.46,1.46,0,0,0,.52.1l1.54-4.09a2,2,0,0,0-.54-.31.4.4,0,0,1-.22-.5.37.37,0,0,1,.48-.23c1.47.57,1.87,1.91,1.95,3.31a5.65,5.65,0,0,1,1.8-.89,2.38,2.38,0,0,1,2,.3A2.69,2.69,0,0,1,48.78,6a5.44,5.44,0,0,1,0,2c1.22-.51,2.71-.93,3.83.18A2.61,2.61,0,0,1,53.51,10a5.85,5.85,0,0,1-.37,2c1.32-.28,2.82-.36,3.72.94a.38.38,0,0,1-.1.53.39.39,0,0,1-.54-.08,2,2,0,0,0-.44-.44l-3.49,2.62a1.48,1.48,0,0,0,.23.48.35.35,0,0,1-.13.48.36.36,0,0,1-.5,0c-.7-1-.32-2.27.14-3.53a7.8,7.8,0,0,1-1.89.27,2.24,2.24,0,0,1-1.63-.56C47.62,11.84,47.71,10.59,47.93,9.24Zm-2.65-.06,2.34-3.72a2,2,0,0,0-.44-.38,1.94,1.94,0,0,0-.61-.26L44.4,8.59a1.5,1.5,0,0,0,.42.39A1.47,1.47,0,0,0,45.28,9.18Zm2.78-.79a4.94,4.94,0,0,0,0-2.2l-2,3A9.84,9.84,0,0,0,48.05,8.39Z"/><path class="cls-1" d="M56,17.32a5.81,5.81,0,0,0,.88-2l-3,1.87A8.19,8.19,0,0,0,56,17.32Zm-.64,2.49,3.11-1.49a5.35,5.35,0,0,0-2.06-.3A10,10,0,0,0,55.37,19.81ZM59.63,29a8.65,8.65,0,0,0-1.72,1.27l3.51-.14A5.57,5.57,0,0,0,59.63,29Zm1.45-2.22-3.41.52a8.72,8.72,0,0,0,1.86.9A5.87,5.87,0,0,0,61.07,26.74Zm.11-2-4.29.94a1.45,1.45,0,0,0,0,.49,2.56,2.56,0,0,0,.21.53l4.27-.76a1.39,1.39,0,0,0,0-.66A2,2,0,0,0,61.19,24.73Zm-4,.23,3.48-.85a5.39,5.39,0,0,0-2-.78A8.35,8.35,0,0,0,57.14,25Zm.61-1.8c-1.36-.26-2.6-.57-3.09-1.72s.24-2.3.91-3.41a8.21,8.21,0,0,1-1.94-.14A2.48,2.48,0,0,1,52.19,17a.35.35,0,0,1,.14-.48.36.36,0,0,1,.51,0,1.5,1.5,0,0,0,.39.37l3.64-2.41a2,2,0,0,0-.28-.55.38.38,0,0,1,.1-.53.39.39,0,0,1,.54.08,2.4,2.4,0,0,1,.41,2,5.63,5.63,0,0,1-.77,1.85c1.4,0,2.75.31,3.42,1.74s-.24,2.7-1.12,3.67c1.36.28,2.62.87,3,2.4s-.78,2.6-1.84,3.37c1.26.55,2.39,1.38,2.45,2.95a.36.36,0,0,1-.38.37.41.41,0,0,1-.4-.38,2,2,0,0,0-.11-.61l-4.37.07a1.45,1.45,0,0,0-.08.53.34.34,0,0,1-.38.31.38.38,0,0,1-.4-.31c-.06-1.25,1.11-2,2.19-2.78-1.27-.53-2.46-1.08-2.68-2.31S56.85,24.11,57.75,23.16Zm-2.09-1.61,4.08-1.64a1.79,1.79,0,0,0-.16-.55,2,2,0,0,0-.37-.55l-4,1.78a1.45,1.45,0,0,0,.14.55A1.67,1.67,0,0,0,55.65,21.55Zm2.67,1a5.6,5.6,0,0,0,1.27-1.8L56.24,22A8,8,0,0,0,58.32,22.55Z"/><path class="cls-1" d="M76.73,54a7.56,7.56,0,0,0-2.94-.81v8.55h-1.1V53.21a7.82,7.82,0,0,0-2.94.82l-.38-1a8.34,8.34,0,0,1,7.75,0Z"/><path class="cls-1" d="M81.89,54.5v1a2.41,2.41,0,0,0-2.6,2.38v3.85H78.23V54.54H79.3v1.61A2.7,2.7,0,0,1,81.89,54.5Z"/><path class="cls-1" d="M90,54.54v7.23H88.9V60.23a3,3,0,0,1-2.8,1.59,3.67,3.67,0,0,1,0-7.34,3,3,0,0,1,2.84,1.59V54.54Zm-1.07,3.9v-.55a2.56,2.56,0,0,0-2.6-2.47,2.74,2.74,0,0,0,0,5.48A2.55,2.55,0,0,0,88.9,58.44Z"/><path class="cls-1" d="M99.19,57.31v4.45H98.12V57.59a1.89,1.89,0,0,0-2-2.06,2.37,2.37,0,0,0-2.43,2.36v3.87H92.57V54.54h1.07v1.59a2.86,2.86,0,0,1,2.8-1.63A2.55,2.55,0,0,1,99.19,57.31Z"/><path class="cls-1" d="M103.43,55.39c-.81,0-1.43.29-1.43,1,0,1.63,4,.8,4,3.39,0,1.42-1.26,2-2.65,2a4.09,4.09,0,0,1-2.78-1L101,60a3.67,3.67,0,0,0,2.4.92c.85,0,1.54-.33,1.55-1.06,0-1.76-4-.87-4-3.42,0-1.37,1.2-2,2.51-2a4.3,4.3,0,0,1,2.31.66l-.41.82A3.81,3.81,0,0,0,103.43,55.39Z"/><path class="cls-1" d="M110.7,55.46a2.7,2.7,0,0,0,0,5.4,2.83,2.83,0,0,0,2.24-.93l.62.63a3.63,3.63,0,0,1-2.9,1.25,3.66,3.66,0,0,1,0-7.31,3.81,3.81,0,0,1,2.79,1.07l-.59.74A3,3,0,0,0,110.7,55.46Z"/><path class="cls-1" d="M119.18,54.5v1a2.41,2.41,0,0,0-2.6,2.38v3.85h-1.07V54.54h1.07v1.61A2.7,2.7,0,0,1,119.18,54.5Z"/><path class="cls-1" d="M121.84,52.46a.7.7,0,1,1-1.4,0,.7.7,0,1,1,1.4,0Zm-.16,2.07v7.23h-1.06V54.54Z"/><path class="cls-1" d="M131.69,58.17a3.39,3.39,0,0,1-3.45,3.64,3,3,0,0,1-2.82-1.59v4.22h-1.07V54.54h1.07v1.55a3,3,0,0,1,2.79-1.59A3.42,3.42,0,0,1,131.69,58.17Zm-1.09,0A2.59,2.59,0,1,0,128,60.86,2.56,2.56,0,0,0,130.61,58.14Z"/><path class="cls-1" d="M136.87,61.27a3,3,0,0,1-1.62.54c-1.1,0-1.87-.77-1.87-2.32V52.86h1.06v1.9h2.29v.84h-2.29v3.71c0,1,.34,1.51,1,1.51a2.32,2.32,0,0,0,1.14-.37Z"/><path class="cls-1" d="M139.7,52.46a.7.7,0,1,1-1.4,0,.7.7,0,1,1,1.4,0Zm-.16,2.07v7.23h-1.06V54.54Z"/><path class="cls-1" d="M148.75,58.14a3.67,3.67,0,1,1-3.67-3.64A3.52,3.52,0,0,1,148.75,58.14Zm-6.27,0a2.6,2.6,0,1,0,2.6-2.71A2.54,2.54,0,0,0,142.49,58.15Z"/><path class="cls-1" d="M157.26,57.31v4.45h-1.07V57.59a1.89,1.89,0,0,0-2-2.06,2.37,2.37,0,0,0-2.43,2.36v3.87h-1.07V54.54h1.07v1.59a2.86,2.86,0,0,1,2.8-1.63A2.55,2.55,0,0,1,157.26,57.31Z"/><path class="cls-1" d="M166.28,54.54v7.23h-1.07V60.23a3,3,0,0,1-2.8,1.59,3.67,3.67,0,0,1,0-7.34,3,3,0,0,1,2.84,1.59V54.54Zm-1.07,3.9v-.55a2.56,2.56,0,0,0-2.6-2.47,2.74,2.74,0,0,0,0,5.48A2.55,2.55,0,0,0,165.21,58.44Z"/><path class="cls-1" d="M170.51,60.82a1.33,1.33,0,0,0,.76-.3l.21.87a2.2,2.2,0,0,1-1.22.43c-.87,0-1.5-.6-1.5-1.77V51.57h1.06v8.34C169.81,60.53,170.07,60.82,170.51,60.82Z"/><path class="cls-1" d="M181,52.12a3.72,3.72,0,0,1,4.07,4v5.65h-1.1V59H178v2.76h-1.1V56.12A3.71,3.71,0,0,1,181,52.12Zm0,1a2.73,2.73,0,0,0-3,3V58h5.91V56.12A2.75,2.75,0,0,0,181,53.12Z"/><path class="cls-1" d="M194.17,57.31v4.45H193.1V57.59a1.89,1.89,0,0,0-2-2.06,2.37,2.37,0,0,0-2.43,2.36v3.87h-1.07V54.54h1.07v1.59a2.86,2.86,0,0,1,2.8-1.63A2.55,2.55,0,0,1,194.17,57.31Z"/><path class="cls-1" d="M203.19,54.54v7.23h-1.07V60.23a3,3,0,0,1-2.8,1.59,3.67,3.67,0,0,1,0-7.34,3,3,0,0,1,2.84,1.59V54.54Zm-1.07,3.9v-.55a2.56,2.56,0,0,0-2.6-2.47,2.74,2.74,0,0,0,0,5.48A2.55,2.55,0,0,0,202.12,58.44Z"/><path class="cls-1" d="M207.42,60.82a1.33,1.33,0,0,0,.76-.3l.21.87a2.2,2.2,0,0,1-1.22.43c-.87,0-1.5-.6-1.5-1.77V51.57h1.06v8.34C206.72,60.53,207,60.82,207.42,60.82Z"/><path class="cls-1" d="M216.16,54.54V61a3.22,3.22,0,0,1-3.5,3.49,4.63,4.63,0,0,1-3-1.18l.33-.78a4.14,4.14,0,0,0,2.54,1A2.35,2.35,0,0,0,215.09,61V59.62a2.73,2.73,0,0,1-2.65,1.54,2.65,2.65,0,0,1-2.91-2.82V54.54h1.07v3.53a1.89,1.89,0,0,0,2.06,2.06c1.54,0,2.43-1.07,2.43-2.78V54.54Z"/><path class="cls-1" d="M220.45,55.39c-.81,0-1.43.29-1.43,1,0,1.63,4,.8,4,3.39,0,1.42-1.26,2-2.65,2a4.09,4.09,0,0,1-2.78-1L218,60a3.67,3.67,0,0,0,2.4.92c.85,0,1.54-.33,1.55-1.06,0-1.76-4-.87-4-3.42,0-1.37,1.2-2,2.51-2a4.3,4.3,0,0,1,2.31.66l-.41.82A3.81,3.81,0,0,0,220.45,55.39Z"/><path class="cls-1" d="M226,52.46a.7.7,0,1,1-1.4,0,.7.7,0,1,1,1.4,0Zm-.16,2.07v7.23h-1.06V54.54Z"/><path class="cls-1" d="M230.34,55.39c-.81,0-1.43.29-1.43,1,0,1.63,4,.8,4,3.39,0,1.42-1.26,2-2.65,2a4.09,4.09,0,0,1-2.78-1l.41-.78a3.67,3.67,0,0,0,2.4.92c.85,0,1.54-.33,1.55-1.06,0-1.76-4-.87-4-3.42,0-1.37,1.2-2,2.51-2a4.3,4.3,0,0,1,2.31.66l-.41.82A3.81,3.81,0,0,0,230.34,55.39Z"/><path class="cls-1" d="M246.34,55.38c0,2.12-1.37,3.34-3.75,3.34h-2.51v3.05H239V52.15h3.61C245,52.15,246.34,53.33,246.34,55.38Zm-1.06,0c0-1.47-1-2.24-2.73-2.24h-2.47V57.7h2.47C244.28,57.7,245.28,56.92,245.28,55.4Z"/><path class="cls-1" d="M249.24,52.46a.7.7,0,1,1-1.4,0,.7.7,0,1,1,1.4,0Zm-.16,2.07v7.23H248V54.54Z"/><path class="cls-1" d="M259.09,58.17a3.39,3.39,0,0,1-3.45,3.64,3,3,0,0,1-2.82-1.59v4.22h-1.07V54.54h1.07v1.55a3,3,0,0,1,2.79-1.59A3.42,3.42,0,0,1,259.09,58.17Zm-1.09,0a2.59,2.59,0,1,0-2.58,2.72A2.56,2.56,0,0,0,258,58.14Z"/><path class="cls-1" d="M266.29,59.76l.65.58a3.72,3.72,0,0,1-3,1.47,3.51,3.51,0,0,1-3.67-3.67,3.46,3.46,0,0,1,3.57-3.64,3.12,3.12,0,0,1,3.31,2.82l-5.62,1.91A2.51,2.51,0,0,0,264,60.91,2.91,2.91,0,0,0,266.29,59.76Zm-5-1.66a2.42,2.42,0,0,0,0,.32l4.73-1.64a2.18,2.18,0,0,0-2.18-1.37A2.46,2.46,0,0,0,261.31,58.1Z"/><path class="cls-1" d="M270.52,60.82a1.33,1.33,0,0,0,.76-.3l.21.87a2.2,2.2,0,0,1-1.22.43c-.87,0-1.5-.6-1.5-1.77V51.57h1.06v8.34C269.82,60.53,270.08,60.82,270.52,60.82Z"/><path class="cls-1" d="M274.09,52.46a.7.7,0,1,1-1.4,0,.7.7,0,1,1,1.4,0Zm-.16,2.07v7.23h-1.06V54.54Z"/><path class="cls-1" d="M283.16,57.31v4.45h-1.07V57.59a1.89,1.89,0,0,0-2-2.06,2.37,2.37,0,0,0-2.43,2.36v3.87h-1.07V54.54h1.07v1.59a2.86,2.86,0,0,1,2.8-1.63A2.55,2.55,0,0,1,283.16,57.31Z"/><path class="cls-1" d="M290.86,59.76l.65.58a3.72,3.72,0,0,1-3,1.47,3.51,3.51,0,0,1-3.67-3.67,3.46,3.46,0,0,1,3.57-3.64,3.12,3.12,0,0,1,3.31,2.82l-5.62,1.91a2.51,2.51,0,0,0,2.47,1.69A2.91,2.91,0,0,0,290.86,59.76Zm-5-1.66a2.42,2.42,0,0,0,0,.32l4.73-1.64a2.18,2.18,0,0,0-2.18-1.37A2.46,2.46,0,0,0,285.89,58.1Z"/></g></g></svg>